<mxfile host="app.diagrams.net" agent="Mozilla/5.0 (Windows NT 10.0; Win64; x64) AppleWebKit/537.36 (KHTML, like Gecko) Chrome/141.0.0.0 Safari/537.36" version="28.2.7">
  <diagram name="Page-1" id="SKj0uXkezSl4-3SqDVVy">
    <mxGraphModel dx="872" dy="473" grid="1" gridSize="10" guides="1" tooltips="1" connect="1" arrows="1" fold="1" page="1" pageScale="1" pageWidth="850" pageHeight="1100" math="0" shadow="0">
      <root>
        <mxCell id="0" />
        <mxCell id="1" parent="0" />
        <mxCell id="2OdYRl-OJsfNRGkhK--Z-14" value="" style="edgeStyle=orthogonalEdgeStyle;rounded=0;orthogonalLoop=1;jettySize=auto;html=1;" edge="1" parent="1" source="2OdYRl-OJsfNRGkhK--Z-1" target="2OdYRl-OJsfNRGkhK--Z-8">
          <mxGeometry relative="1" as="geometry" />
        </mxCell>
        <mxCell id="2OdYRl-OJsfNRGkhK--Z-1" value="START" style="strokeWidth=2;html=1;shape=mxgraph.flowchart.terminator;whiteSpace=wrap;" vertex="1" parent="1">
          <mxGeometry x="375" y="40" width="100" height="60" as="geometry" />
        </mxCell>
        <mxCell id="2OdYRl-OJsfNRGkhK--Z-13" value="" style="edgeStyle=orthogonalEdgeStyle;rounded=0;orthogonalLoop=1;jettySize=auto;html=1;" edge="1" parent="1" source="2OdYRl-OJsfNRGkhK--Z-3" target="2OdYRl-OJsfNRGkhK--Z-12">
          <mxGeometry relative="1" as="geometry" />
        </mxCell>
        <mxCell id="2OdYRl-OJsfNRGkhK--Z-16" value="" style="edgeStyle=orthogonalEdgeStyle;rounded=0;orthogonalLoop=1;jettySize=auto;html=1;" edge="1" parent="1" source="2OdYRl-OJsfNRGkhK--Z-3" target="2OdYRl-OJsfNRGkhK--Z-10">
          <mxGeometry relative="1" as="geometry" />
        </mxCell>
        <mxCell id="2OdYRl-OJsfNRGkhK--Z-3" value="a &amp;lt;= 5" style="strokeWidth=2;html=1;shape=mxgraph.flowchart.decision;whiteSpace=wrap;" vertex="1" parent="1">
          <mxGeometry x="375" y="230" width="100" height="100" as="geometry" />
        </mxCell>
        <mxCell id="2OdYRl-OJsfNRGkhK--Z-18" value="" style="edgeStyle=orthogonalEdgeStyle;rounded=0;orthogonalLoop=1;jettySize=auto;html=1;" edge="1" parent="1" source="2OdYRl-OJsfNRGkhK--Z-4" target="2OdYRl-OJsfNRGkhK--Z-11">
          <mxGeometry relative="1" as="geometry" />
        </mxCell>
        <mxCell id="2OdYRl-OJsfNRGkhK--Z-22" value="" style="edgeStyle=orthogonalEdgeStyle;rounded=0;orthogonalLoop=1;jettySize=auto;html=1;" edge="1" parent="1" source="2OdYRl-OJsfNRGkhK--Z-4" target="2OdYRl-OJsfNRGkhK--Z-20">
          <mxGeometry relative="1" as="geometry" />
        </mxCell>
        <mxCell id="2OdYRl-OJsfNRGkhK--Z-4" value="b &amp;lt;= 5" style="strokeWidth=2;html=1;shape=mxgraph.flowchart.decision;whiteSpace=wrap;" vertex="1" parent="1">
          <mxGeometry x="375" y="460" width="100" height="100" as="geometry" />
        </mxCell>
        <mxCell id="2OdYRl-OJsfNRGkhK--Z-29" style="edgeStyle=orthogonalEdgeStyle;rounded=0;orthogonalLoop=1;jettySize=auto;html=1;exitX=0.5;exitY=1;exitDx=0;exitDy=0;entryX=0.5;entryY=0;entryDx=0;entryDy=0;" edge="1" parent="1" source="2OdYRl-OJsfNRGkhK--Z-5" target="2OdYRl-OJsfNRGkhK--Z-28">
          <mxGeometry relative="1" as="geometry" />
        </mxCell>
        <mxCell id="2OdYRl-OJsfNRGkhK--Z-5" value="b = b + 1" style="rounded=1;whiteSpace=wrap;html=1;absoluteArcSize=1;arcSize=14;strokeWidth=2;" vertex="1" parent="1">
          <mxGeometry x="375" y="700" width="100" height="50" as="geometry" />
        </mxCell>
        <mxCell id="2OdYRl-OJsfNRGkhK--Z-24" value="" style="edgeStyle=orthogonalEdgeStyle;rounded=0;orthogonalLoop=1;jettySize=auto;html=1;" edge="1" parent="1" source="2OdYRl-OJsfNRGkhK--Z-7" target="2OdYRl-OJsfNRGkhK--Z-21">
          <mxGeometry relative="1" as="geometry" />
        </mxCell>
        <mxCell id="2OdYRl-OJsfNRGkhK--Z-27" value="" style="edgeStyle=orthogonalEdgeStyle;rounded=0;orthogonalLoop=1;jettySize=auto;html=1;" edge="1" parent="1" source="2OdYRl-OJsfNRGkhK--Z-7" target="2OdYRl-OJsfNRGkhK--Z-26">
          <mxGeometry relative="1" as="geometry" />
        </mxCell>
        <mxCell id="2OdYRl-OJsfNRGkhK--Z-7" value="c &amp;lt;= (2*a - 1)" style="strokeWidth=2;html=1;shape=mxgraph.flowchart.decision;whiteSpace=wrap;" vertex="1" parent="1">
          <mxGeometry x="580" y="580" width="100" height="100" as="geometry" />
        </mxCell>
        <mxCell id="2OdYRl-OJsfNRGkhK--Z-15" value="" style="edgeStyle=orthogonalEdgeStyle;rounded=0;orthogonalLoop=1;jettySize=auto;html=1;" edge="1" parent="1" source="2OdYRl-OJsfNRGkhK--Z-8" target="2OdYRl-OJsfNRGkhK--Z-3">
          <mxGeometry relative="1" as="geometry" />
        </mxCell>
        <mxCell id="2OdYRl-OJsfNRGkhK--Z-8" value="a = 1" style="shape=parallelogram;html=1;strokeWidth=2;perimeter=parallelogramPerimeter;whiteSpace=wrap;rounded=1;arcSize=12;size=0.23;" vertex="1" parent="1">
          <mxGeometry x="375" y="135" width="100" height="60" as="geometry" />
        </mxCell>
        <mxCell id="2OdYRl-OJsfNRGkhK--Z-17" value="" style="edgeStyle=orthogonalEdgeStyle;rounded=0;orthogonalLoop=1;jettySize=auto;html=1;" edge="1" parent="1" source="2OdYRl-OJsfNRGkhK--Z-10" target="2OdYRl-OJsfNRGkhK--Z-4">
          <mxGeometry relative="1" as="geometry" />
        </mxCell>
        <mxCell id="2OdYRl-OJsfNRGkhK--Z-10" value="b = a" style="shape=parallelogram;html=1;strokeWidth=2;perimeter=parallelogramPerimeter;whiteSpace=wrap;rounded=1;arcSize=12;size=0.23;" vertex="1" parent="1">
          <mxGeometry x="375" y="360" width="100" height="60" as="geometry" />
        </mxCell>
        <mxCell id="2OdYRl-OJsfNRGkhK--Z-25" value="" style="edgeStyle=orthogonalEdgeStyle;rounded=0;orthogonalLoop=1;jettySize=auto;html=1;" edge="1" parent="1" source="2OdYRl-OJsfNRGkhK--Z-11" target="2OdYRl-OJsfNRGkhK--Z-5">
          <mxGeometry relative="1" as="geometry" />
        </mxCell>
        <mxCell id="2OdYRl-OJsfNRGkhK--Z-11" value="print(&quot; &quot;)" style="shape=parallelogram;html=1;strokeWidth=2;perimeter=parallelogramPerimeter;whiteSpace=wrap;rounded=1;arcSize=12;size=0.23;" vertex="1" parent="1">
          <mxGeometry x="375" y="600" width="100" height="60" as="geometry" />
        </mxCell>
        <mxCell id="2OdYRl-OJsfNRGkhK--Z-12" value="FINISH" style="strokeWidth=2;html=1;shape=mxgraph.flowchart.terminator;whiteSpace=wrap;" vertex="1" parent="1">
          <mxGeometry x="580" y="250" width="100" height="60" as="geometry" />
        </mxCell>
        <mxCell id="2OdYRl-OJsfNRGkhK--Z-23" value="" style="edgeStyle=orthogonalEdgeStyle;rounded=0;orthogonalLoop=1;jettySize=auto;html=1;" edge="1" parent="1" source="2OdYRl-OJsfNRGkhK--Z-20" target="2OdYRl-OJsfNRGkhK--Z-7">
          <mxGeometry relative="1" as="geometry" />
        </mxCell>
        <mxCell id="2OdYRl-OJsfNRGkhK--Z-20" value="c = 1" style="shape=parallelogram;html=1;strokeWidth=2;perimeter=parallelogramPerimeter;whiteSpace=wrap;rounded=1;arcSize=12;size=0.23;" vertex="1" parent="1">
          <mxGeometry x="580" y="480" width="100" height="60" as="geometry" />
        </mxCell>
        <mxCell id="2OdYRl-OJsfNRGkhK--Z-21" value="println(&quot;&quot;)" style="shape=parallelogram;html=1;strokeWidth=2;perimeter=parallelogramPerimeter;whiteSpace=wrap;rounded=1;arcSize=12;size=0.23;" vertex="1" parent="1">
          <mxGeometry x="730" y="600" width="100" height="60" as="geometry" />
        </mxCell>
        <mxCell id="2OdYRl-OJsfNRGkhK--Z-30" style="edgeStyle=orthogonalEdgeStyle;rounded=0;orthogonalLoop=1;jettySize=auto;html=1;exitX=0;exitY=0.5;exitDx=0;exitDy=0;" edge="1" parent="1" source="2OdYRl-OJsfNRGkhK--Z-26">
          <mxGeometry relative="1" as="geometry">
            <mxPoint x="420" y="810" as="targetPoint" />
            <Array as="points">
              <mxPoint x="430" y="810" />
            </Array>
          </mxGeometry>
        </mxCell>
        <mxCell id="2OdYRl-OJsfNRGkhK--Z-26" value="print(&quot;*&quot;)" style="shape=parallelogram;html=1;strokeWidth=2;perimeter=parallelogramPerimeter;whiteSpace=wrap;rounded=1;arcSize=12;size=0.23;" vertex="1" parent="1">
          <mxGeometry x="580" y="780" width="100" height="60" as="geometry" />
        </mxCell>
        <mxCell id="2OdYRl-OJsfNRGkhK--Z-31" style="edgeStyle=orthogonalEdgeStyle;rounded=0;orthogonalLoop=1;jettySize=auto;html=1;exitX=0.5;exitY=1;exitDx=0;exitDy=0;entryX=0;entryY=0.5;entryDx=0;entryDy=0;entryPerimeter=0;" edge="1" parent="1" source="2OdYRl-OJsfNRGkhK--Z-28" target="2OdYRl-OJsfNRGkhK--Z-3">
          <mxGeometry relative="1" as="geometry">
            <mxPoint x="370" y="280" as="targetPoint" />
            <Array as="points">
              <mxPoint x="425" y="1020" />
              <mxPoint x="240" y="1020" />
              <mxPoint x="240" y="280" />
            </Array>
          </mxGeometry>
        </mxCell>
        <mxCell id="2OdYRl-OJsfNRGkhK--Z-28" value="a = a + 1" style="rounded=1;whiteSpace=wrap;html=1;absoluteArcSize=1;arcSize=14;strokeWidth=2;" vertex="1" parent="1">
          <mxGeometry x="375" y="900" width="100" height="50" as="geometry" />
        </mxCell>
        <mxCell id="2OdYRl-OJsfNRGkhK--Z-32" value="Nama : Ahmad Faizal Fahmi&lt;div&gt;Flowchart Segitiga Siku Siku&lt;/div&gt;" style="text;html=1;whiteSpace=wrap;strokeColor=none;fillColor=none;align=center;verticalAlign=middle;rounded=0;" vertex="1" parent="1">
          <mxGeometry x="50" y="70" width="170" height="30" as="geometry" />
        </mxCell>
        <mxCell id="2OdYRl-OJsfNRGkhK--Z-33" value="Tidak" style="text;html=1;whiteSpace=wrap;strokeColor=none;fillColor=none;align=center;verticalAlign=middle;rounded=0;" vertex="1" parent="1">
          <mxGeometry x="490" y="250" width="60" height="30" as="geometry" />
        </mxCell>
        <mxCell id="2OdYRl-OJsfNRGkhK--Z-34" value="Ya" style="text;html=1;whiteSpace=wrap;strokeColor=none;fillColor=none;align=center;verticalAlign=middle;rounded=0;" vertex="1" parent="1">
          <mxGeometry x="360" y="327" width="60" height="30" as="geometry" />
        </mxCell>
        <mxCell id="2OdYRl-OJsfNRGkhK--Z-35" value="Ya" style="text;html=1;whiteSpace=wrap;strokeColor=none;fillColor=none;align=center;verticalAlign=middle;rounded=0;" vertex="1" parent="1">
          <mxGeometry x="360" y="564" width="60" height="30" as="geometry" />
        </mxCell>
        <mxCell id="2OdYRl-OJsfNRGkhK--Z-36" value="Tidak" style="text;html=1;whiteSpace=wrap;strokeColor=none;fillColor=none;align=center;verticalAlign=middle;rounded=0;" vertex="1" parent="1">
          <mxGeometry x="490" y="480" width="60" height="30" as="geometry" />
        </mxCell>
        <mxCell id="2OdYRl-OJsfNRGkhK--Z-37" value="Tidak" style="text;html=1;whiteSpace=wrap;strokeColor=none;fillColor=none;align=center;verticalAlign=middle;rounded=0;" vertex="1" parent="1">
          <mxGeometry x="680" y="600" width="60" height="30" as="geometry" />
        </mxCell>
        <mxCell id="2OdYRl-OJsfNRGkhK--Z-38" value="Ya" style="text;html=1;whiteSpace=wrap;strokeColor=none;fillColor=none;align=center;verticalAlign=middle;rounded=0;" vertex="1" parent="1">
          <mxGeometry x="570" y="710" width="60" height="30" as="geometry" />
        </mxCell>
      </root>
    </mxGraphModel>
  </diagram>
</mxfile>
